# xmcd
#
# Track frame offsets:
#	151
#	13559
#	25991
#	36832
#	47772
#	58069
#	73048
#	85245
#	97180
#	105697
#	117302
#	126309
#	137872
#	149133
#	160744
#	173271
#	183292
#	200271
#	210665
#	222374
#	235558
#	247427
#	257593
#	267419
#	282378
#
# Disc length: 3963 seconds
#
# Revision: 0
# Processed by: cddbd v1.5.1PL0 Copyright (c) Steve Scherf et al.
# Submitted via: dBpowerAMP V4.0
#
DISCID=7e0f7919
DTITLE=Various Artist - Country Greats Volume 1
DYEAR=1900
DGENRE=
TTITLE0=Ruby Don't Take Your Love To Town -- Kenny Rogers
TTITLE1=High Noon -- Frankie Lane
TTITLE2=I'm So Lonesome I Could Cry -- Billie Jo Spars
TTITLE3=I Don't Wanna -- Patsy Cline
TTITLE4=Anytime You're Feeling Lonely -- Slim Whitman
TTITLE5=I Dreamed Of A Hillbilly Heaven -- Tex Ritter
TTITLE6=Happiness Lives Next Door -- Willie Nelson
TTITLE7=Don't Think Twice -- Waylon Jennings
TTITLE8=Paths Of Victory -- Ann Murray
TTITLE9=Rodeo Cowboy -- Lynn Anderson
TTITLE10=A Little Bitty Tear -- Burl Ives
TTITLE11=Three Hearts In A Tangle -- Roy Drusky
TTITLE12=Love Is A Golden Ring -- Frankie Lane
TTITLE13=Walkin' After Midnight -- Patsy Cline
TTITLE14=Reuben James -- Kenny Rogers
TTITLE15=Cara Mia -- Slim Whitman
TTITLE16=Blue Bayou -- Lynn Anderson
TTITLE17=It Makes No Different Now -- Billie Jo Spears
TTITLE18=Is There Something On Your Mind -- Willie Nelson
TTITLE19=Answer me -- Frankie Lane
TTITLE20=Now Is The Hour -- Slim Whitman
TTITLE21=Sally Was A Good 'Ol Girl -- Waylon Jennings
TTITLE22=Let's Pretend -- Willie Nelson
TTITLE23=For The Good Times -- Kenny Rogers
TTITLE24=Gone At Last -- Lynn Anderson
EXTD=Bob Dunham
EXTT0=
EXTT1=
EXTT2=
EXTT3=
EXTT4=
EXTT5=
EXTT6=
EXTT7=
EXTT8=
EXTT9=
EXTT10=
EXTT11=
EXTT12=
EXTT13=
EXTT14=
EXTT15=
EXTT16=
EXTT17=
EXTT18=
EXTT19=
EXTT20=
EXTT21=
EXTT22=
EXTT23=
EXTT24=
PLAYORDER=
